<?xml version="1.0" encoding="utf-8"?>
<!-- Generator: Adobe Illustrator 25.2.1, SVG Export Plug-In . SVG Version: 6.00 Build 0)  -->
<svg version="1.1" id="Capa_1" xmlns="http://www.w3.org/2000/svg" xmlns:xlink="http://www.w3.org/1999/xlink" x="0px" y="0px"
	 viewBox="0 0 28 26" style="enable-background:new 0 0 28 26;" xml:space="preserve">
<style type="text/css">
	.st0{fill-rule:evenodd;clip-rule:evenodd;fill:url(#SVGID_1_);enable-background:new    ;}
	.st1{fill-rule:evenodd;clip-rule:evenodd;fill:url(#SVGID_2_);}
	.st2{fill:#FF4B4B;stroke:#FFFFFF;}
	.st3{fill:#FFFFFF;}
</style>
<linearGradient id="SVGID_1_" gradientUnits="userSpaceOnUse" x1="7.5837" y1="7.2988" x2="18.5939" y2="-0.7407" gradientTransform="matrix(1 0 0 -1 0 25.89)">
	<stop  offset="0" style="stop-color:#FF9300"/>
	<stop  offset="1" style="stop-color:#FF9300"/>
</linearGradient>
<path class="st0" d="M5.9,22.6c0-0.8,0.7-1.5,1.5-1.5c0.8,0,1.5,0.7,1.5,1.5c0,0.8-0.7,1.5-1.5,1.5C6.6,24.1,5.9,23.4,5.9,22.6z
	 M17.2,22.6c0-0.8,0.7-1.5,1.5-1.5c0.8,0,1.5,0.7,1.5,1.5c0,0.8-0.7,1.5-1.5,1.5C17.8,24.1,17.2,23.4,17.2,22.6z"/>
<linearGradient id="SVGID_2_" gradientUnits="userSpaceOnUse" x1="0.4704" y1="14.9176" x2="23.1599" y2="10.2231" gradientTransform="matrix(1 0 0 -1 0 25.89)">
	<stop  offset="0" style="stop-color:#FF9300"/>
	<stop  offset="1" style="stop-color:#FF9300"/>
</linearGradient>
<path class="st1" d="M20.2,8.3c0.6,0,1,0.2,1.4,0.7s0.5,1.1,0.4,1.7l-1,6.6c-0.2,1.3-1.3,2.2-2.5,2.2H7.6c-1.3,0-2.4-1-2.5-2.3
	L4.1,6.2L2.6,6C2.2,5.9,1.9,5.5,2,5.1c0.1-0.4,0.5-0.7,0.9-0.6l2.4,0.4c0.3,0.1,0.6,0.3,0.6,0.7l0.2,2.2c0,0.3,0.3,0.6,0.6,0.6H20.2
	z M14.1,13.5h2.8c0.4,0,0.8-0.3,0.8-0.8c0-0.4-0.3-0.8-0.8-0.8h-2.8c-0.4,0-0.8,0.3-0.8,0.8C13.4,13.2,13.7,13.5,14.1,13.5z"/>
<circle class="st2" cx="21.5" cy="6.5" r="6"/>
<path class="st3" d="M20.6,11l2.7-6l0.2,0.3h-3.9L19.9,5v1.5h-0.6V4.7h4.6v0.5L21.3,11H20.6z"/>
</svg>
